<?xml version="1.0" encoding="utf-8"?>
<!-- Generator: Adobe Illustrator 21.0.0, SVG Export Plug-In . SVG Version: 6.00 Build 0)  -->
<svg version="1.1" id="Layer_1" xmlns="http://www.w3.org/2000/svg" xmlns:xlink="http://www.w3.org/1999/xlink" x="0px" y="0px"
	 viewBox="0 0 24 24" style="enable-background:new 0 0 24 24;" xml:space="preserve">
<style type="text/css">
	.st0{fill:#353B41;}
</style>
<path class="st0" d="M14.5,16c-0.3,0-0.5-0.2-0.5-0.5v-6C14,9.2,14.2,9,14.5,9H16c1.1,0,2,0.9,2,2c0,0.4-0.1,0.8-0.3,1.1
	c0.8,0.3,1.3,1,1.3,1.9c0,1.1-0.9,2-2,2H14.5z M15,15h2c0.6,0,1-0.4,1-1s-0.4-1-1-1h-2V15z M15,12h1c0.6,0,1-0.4,1-1s-0.4-1-1-1h-1
	V12z M12.9,4h6.6C20.9,4,22,5.1,22,6.5v13c0,1.4-1.1,2.5-2.5,2.5h-6c-1.2,0-2.3-0.9-2.5-2.1c-0.2,0-0.4,0.1-0.5,0.1h-6
	C3.1,20,2,18.9,2,17.5v-13C2,3.1,3.1,2,4.5,2h6C11.7,2,12.7,2.9,12.9,4z M13,5v12.5c0,0.8-0.4,1.5-1,2c0,0.8,0.7,1.5,1.5,1.5h6
	c0.8,0,1.5-0.7,1.5-1.5v-13C21,5.7,20.3,5,19.5,5H13z M8.6,11.5C8.5,11.5,8.5,11.5,8.6,11.5l-2.1,0c0,0,0,0-0.1,0L6,12.7
	c-0.1,0.3-0.4,0.4-0.6,0.3c-0.3-0.1-0.4-0.4-0.3-0.6l2-5c0.2-0.4,0.8-0.4,0.9,0l2,5c0.1,0.3,0,0.5-0.3,0.6c-0.3,0.1-0.5,0-0.6-0.3
	L8.6,11.5L8.6,11.5z M8.2,10.5L7.5,8.8l-0.7,1.7H8.2z M10.5,3h-6C3.7,3,3,3.7,3,4.5v13C3,18.3,3.7,19,4.5,19h6
	c0.8,0,1.5-0.7,1.5-1.5v-13C12,3.7,11.3,3,10.5,3z M6.5,18C6.2,18,6,17.8,6,17.5S6.2,17,6.5,17h2C8.8,17,9,17.2,9,17.5
	S8.8,18,8.5,18H6.5z M15.5,20c-0.3,0-0.5-0.2-0.5-0.5s0.2-0.5,0.5-0.5h2c0.3,0,0.5,0.2,0.5,0.5S17.8,20,17.5,20H15.5z"/>
</svg>
